<svg id="Ebene_1" data-name="Ebene 1" xmlns="http://www.w3.org/2000/svg" xmlns:xlink="http://www.w3.org/1999/xlink" viewBox="-95 0 500 196">
  <defs>
    <style>
      .cls-1, .cls-5 {
        fill: none;
      }

      .cls-2 {
        font-size: 14px;
      }

      .cls-2, .cls-3, .cls-6, .cls-8 {
        font-family: Times-Roman, Times Roman;
      }

      .cls-3 {
        font-size: 18px;
      }

      .cls-4 {
        clip-path: url(#clip-path);
      }

      .cls-5 {
        stroke: #000;
      }

      .cls-6 {
        font-size: 16px;
      }

      .cls-7 {
        fill: #fff;
      }

      .cls-8 {
        font-size: 12px;
      }
    </style>
    <clipPath id="clip-path" transform="translate(-151.4516 -298)">
      <rect class="cls-1" x="149" y="295" width="313" height="203"/>
    </clipPath>
  </defs>
  <title>blaaaa</title>
  <g>
    <text class="cls-2" transform="translate(52.0484 92.1953)">{ Data }</text>
    <text class="cls-3" transform="translate(30.8453 66.1484)">RESTful API</text>
    <g class="cls-4">
      <path class="cls-5" d="M200.05,385.5h-26.4m108.35,0H250.65m-75.7-.05a24.5459,24.5459,0,0,1-22.45-18.8,23.8609,23.8609,0,0,1,18.25-28.35m117.2-2a25.9584,25.9584,0,0,1,17.15,24.1,25.2871,25.2871,0,0,1-25.45,25.1M241.8,326.65a25.533,25.533,0,0,1,17.4-11.45,25.0828,25.0828,0,0,1,28.7,21M171.05,338a13.7693,13.7693,0,0,1,2-8.15,13.4847,13.4847,0,0,1,18.5-4.3m.2-.2a29.92,29.92,0,0,1,50.05,1.3m80.15,32.75H375m-7.2-3H314.75" transform="translate(-151.4516 -298)"/>
    </g>
    <path d="M313.25,358.9l10,3.05A5.4338,5.4338,0,0,1,322,358.9h-8.75" transform="translate(-151.4516 -298)"/>
    <path d="M376.5,356.9h-8.75a15.7071,15.7071,0,0,0-1.25-3.05l10,3.05h0" transform="translate(-151.4516 -298)"/>
    <polyline class="cls-5" points="233.848 99.7 233.848 23.5 289.548 23.5 289.548 99.7 233.848 99.7"/>
    <text class="cls-6" transform="translate(251.5016 56.2031)">&lt;/&gt;</text>
    <text class="cls-2" transform="translate(244.7516 85.0469)">HTML</text>
    <path d="M226.45,480.25c9.8,0,17.8,3.2,17.8,7.15,0,3.9-8,7.1-17.8,7.1-9.85,0-17.85-3.2-17.85-7.1,0-3.95,8-7.15,17.85-7.15" transform="translate(-151.4516 -298)"/>
    <path d="M225.85,471.65c8.4,0,15.25,2.7,15.25,6.1,0,3.35-6.85,6.1-15.25,6.1-8.45,0-15.25-2.75-15.25-6.1,0-3.4,6.8-6.1,15.25-6.1" transform="translate(-151.4516 -298)"/>
    <path d="M211.4,490.15c2.05.35,4.15-1.8,4.7-4.8l.75-4.35c.55-3-.7-5.75-2.8-6.1-2.05-.35-4.15,1.8-4.7,4.8l-.75,4.3c-.5,3.05.75,5.8,2.8,6.15" transform="translate(-151.4516 -298)"/>
    <path d="M242.1,489.6c2-.65,2.85-3.5,1.9-6.45L242.7,479c-.95-2.9-3.35-4.75-5.35-4.15-2,.65-2.85,3.55-1.9,6.45l1.35,4.2c.9,2.9,3.3,4.75,5.3,4.1" transform="translate(-151.4516 -298)"/>
    <path class="cls-7" d="M226.5,463.85c5.5,0,9.9,2.4,9.9,5.4s-4.4,5.4-9.9,5.4c-5.45,0-9.85-2.4-9.85-5.4s4.4-5.4,9.85-5.4" transform="translate(-151.4516 -298)"/>
    <path d="M237.36,463a10.8,10.8,0,1,1-10.8-10.8,10.8039,10.8039,0,0,1,10.8,10.8Z" transform="translate(-151.4516 -298)"/>
    <path d="M257.2,469.35c7.4,0,13.45,2.4,13.45,5.4,0,2.95-6.05,5.35-13.45,5.35-7.45,0-13.5-2.4-13.5-5.35,0-3,6.05-5.4,13.5-5.4" transform="translate(-151.4516 -298)"/>
    <path d="M256.75,462.85c6.35,0,11.5,2.05,11.5,4.6s-5.15,4.6-11.5,4.6c-6.4,0-11.55-2.05-11.55-4.6s5.15-4.6,11.55-4.6" transform="translate(-151.4516 -298)"/>
    <path d="M245.15,477c1.6.25,3.25-1.95,3.8-5l.1-.55c.55-3-.3-5.7-1.85-5.95-1.55-.3-3.25,1.95-3.8,4.95l-.1.6c-.55,3,.3,5.65,1.85,5.95" transform="translate(-151.4516 -298)"/>
    <path d="M269.8,476.4c1.5-.5,1.95-3.25,1.05-6.2l-.2-.55c-.95-2.9-2.9-4.9-4.4-4.4-1.55.5-2,3.25-1.05,6.15l.15.55c.95,2.95,2.95,4.9,4.45,4.45" transform="translate(-151.4516 -298)"/>
    <path class="cls-7" d="M257.25,456.95c4.1,0,7.45,1.85,7.45,4.1s-3.35,4.05-7.45,4.05-7.45-1.8-7.45-4.05,3.35-4.1,7.45-4.1" transform="translate(-151.4516 -298)"/>
    <path d="M265.43,456.4a8.15,8.15,0,1,1-8.15-8.15,8.153,8.153,0,0,1,8.15,8.15Z" transform="translate(-151.4516 -298)"/>
    <path d="M194.4,469.55c7.45,0,13.45,2.4,13.45,5.35,0,3-6,5.4-13.45,5.4s-13.45-2.4-13.45-5.4c0-2.95,6-5.35,13.45-5.35" transform="translate(-151.4516 -298)"/>
    <path d="M193.95,463.05c6.35,0,11.5,2.05,11.5,4.6s-5.15,4.6-11.5,4.6-11.5-2.05-11.5-4.6,5.15-4.6,11.5-4.6" transform="translate(-151.4516 -298)"/>
    <path d="M182.2,477.1c1.55.25,3.25-1.95,3.8-5l.1-.55c.5-3-.3-5.7-1.9-5.95-1.55-.3-3.25,1.95-3.75,4.95l-.1.55c-.55,3.05.3,5.7,1.85,6" transform="translate(-151.4516 -298)"/>
    <path d="M206.55,476.5c1.5-.5,1.95-3.25,1.05-6.2l-.2-.55c-.95-2.9-2.9-4.9-4.4-4.4-1.55.5-2,3.25-1.05,6.15l.15.55c.95,2.95,2.95,4.9,4.45,4.45" transform="translate(-151.4516 -298)"/>
    <path class="cls-7" d="M194.45,457.15c4.15,0,7.45,1.8,7.45,4.05s-3.3,4.1-7.45,4.1c-4.1,0-7.45-1.85-7.45-4.1s3.35-4.05,7.45-4.05" transform="translate(-151.4516 -298)"/>
    <path d="M202.79,456.4a8.15,8.15,0,1,1-8.15-8.15,8.153,8.153,0,0,1,8.15,8.15Z" transform="translate(-151.4516 -298)"/>
    <path class="cls-5" d="M223.5,408.8v35.95m3-7.2V401.6" transform="translate(-151.4516 -298)"/>
    <path d="M224,400.1l-3.1,10a5.47,5.47,0,0,1,3.1-1.25V400.1h0" transform="translate(-151.4516 -298)"/>
    <path d="M226,446.25V437.5a15.0877,15.0877,0,0,0,3.1-1.25l-3.1,10h0" transform="translate(-151.4516 -298)"/>
    <polyline class="cls-7" points="266.248 14.3 280.398 0 307.748 27.05 293.598 41.35 266.248 14.3"/>
    <path class="cls-5" d="M441.15,336.4,426,321.3m0,15.15V321.3m-.45,14.65h15" transform="translate(-151.4516 -298)"/>
    <text class="cls-8" transform="translate(180.5719 36.9063)">web</text>
    <text class="cls-8" transform="translate(169.5875 50.7031)">scraping</text>
  </g>
</svg>
